<svg width="24" height="24" viewBox="0 0 24 24" fill="none" xmlns="http://www.w3.org/2000/svg">
<path d="M15.61 13.5726L15.61 13.5725L15.6065 13.576L9.09386 20.0887C9.02761 20.1484 8.9587 20.1695 8.9101 20.1695C8.84555 20.1695 8.78494 20.1473 8.73365 20.096C8.63891 20.0012 8.63891 19.8378 8.73365 19.7431L15.2537 13.2231C15.9289 12.5478 15.9289 11.4512 15.2537 10.776L8.73365 4.25598C8.63891 4.16124 8.63891 3.99782 8.73365 3.90308C8.82839 3.80835 8.99181 3.80835 9.08654 3.90308L15.6065 10.4231C16.0236 10.8401 16.2601 11.4033 16.2601 11.9995C16.2601 12.6 16.0308 13.1599 15.61 13.5726Z" fill="#283040" stroke="#283040"/>
</svg>
