<svg width="142" height="74" viewBox="0 0 142 74" fill="none" xmlns="http://www.w3.org/2000/svg">
<path d="M139.884 20.7684H135.774H135.706L107.329 20.7207C106.682 20.7207 106.154 21.2451 106.154 21.8954V25.4639C106.154 26.1108 106.679 26.6386 107.329 26.6386L129.795 26.6863L122.652 33.8299C122.076 34.4054 121.981 35.2464 122.437 35.7027L124.96 38.2258C125.42 38.6855 126.257 38.5901 126.833 38.0113L141.113 23.7307C142.2 22.6377 141.427 20.7684 139.884 20.7684Z" fill="#132F57"/>
<path d="M107.326 17.79L135.703 17.7423H135.771H139.881C141.427 17.7423 142.2 15.8764 141.107 14.7834L126.826 0.502845C126.251 -0.072599 125.41 -0.167941 124.953 0.288329L122.43 2.81143C121.97 3.27111 122.069 4.10873 122.645 4.68418L129.788 11.8279L107.322 11.8755C106.675 11.8755 106.147 12.3999 106.147 13.0503V16.6187C106.151 17.2622 106.679 17.79 107.326 17.79Z" fill="#132F57"/>
<path d="M27.7269 62.1179C27.7337 62.077 27.7405 62.0327 27.7405 61.9851V61.8557V58.8627V57.344C27.7405 56.9627 27.4306 56.6562 27.0527 56.6562H24.962C24.5807 56.6562 24.2742 56.9661 24.2742 57.344V57.8139V62.5469C24.2742 63.1189 23.8111 63.5854 23.2357 63.5854H20.5015C20.6649 63.1223 20.7637 62.6286 20.7909 62.1179C20.7977 62.077 20.8045 62.0327 20.8045 61.9851V61.8557V58.8627V57.344C20.8045 56.9627 20.4947 56.6562 20.1167 56.6562H18.026C17.6447 56.6562 17.3382 56.9661 17.3382 57.344V57.8139V62.5469C17.3382 63.1189 16.8752 63.5854 16.2997 63.5854H14.9003C14.3555 63.5854 13.9128 63.1632 13.8719 62.6252V61.9851V61.8557V60.3234V60.2383V58.8627V57.344C13.8719 56.9627 13.5621 56.6562 13.1841 56.6562H13.1773H11.0935H11.0867C10.7053 56.6562 10.3988 56.9661 10.3988 57.344V58.8627V61.8557V61.9851C10.3988 62.0123 10.4023 62.0395 10.4057 62.0634V67.7872C10.4057 68.3592 9.94258 68.8257 9.36714 68.8257H4.5048C3.93276 68.8257 3.46628 68.3626 3.46628 67.7872L3.46287 67.7838V65.1142C3.46287 65.1074 3.46628 65.1006 3.46628 65.0938V60.8274C3.46628 60.446 3.15642 60.1396 2.77847 60.1396H0.687805C0.306446 60.1396 0 60.4494 0 60.8274V63.3266V67.0925C0 69.963 2.32901 72.292 5.19942 72.292H8.67592C11.5463 72.292 13.8754 69.963 13.8754 67.0925V66.7486C14.335 66.9087 14.8219 67.0074 15.3293 67.0347C15.3633 67.0415 15.394 67.0483 15.4314 67.0483H15.5234H15.5983H15.6153C16.6028 67.0483 17.5221 66.7691 18.3052 66.2924L18.9352 66.9223C19.0169 67.004 19.1259 67.0483 19.2416 67.0483H22.5513C25.3229 67.0551 27.5873 64.8657 27.7269 62.1179Z" fill="#132F57"/>
<path d="M88.8908 48.2266H86.8001C86.4188 48.2266 86.1123 48.5364 86.1123 48.9144V66.3616C86.1123 66.7429 86.4222 67.0494 86.8001 67.0494H88.8908C89.2721 67.0494 89.5786 66.7395 89.5786 66.3616V48.9144C89.582 48.5364 89.2721 48.2266 88.8908 48.2266Z" fill="#132F57"/>
<path d="M79.1186 53.1915H78.2775L82.0571 49.4154C82.4929 48.9796 82.1831 48.2305 81.5667 48.2305H78.4886C78.3899 48.2305 78.2945 48.2679 78.2264 48.3394L73.8544 52.708L71.0862 55.4763C70.6503 55.9121 70.9568 56.6612 71.5765 56.6612H72.867C72.8806 56.6612 72.8942 56.6646 72.9078 56.6646L79.1492 56.6612C80.0958 56.6612 80.8619 57.4274 80.8619 58.3739V62.5553V63.587H72.758V63.57L72.7512 63.5802H66.9219C66.3498 63.5802 65.8833 63.1171 65.8833 62.5417V62.0309C65.8833 62.0173 65.8868 62.0037 65.8868 61.99V61.8607V58.8677V57.349C65.8868 56.9677 65.5769 56.6612 65.199 56.6612H63.1083C63.0606 56.6612 63.0129 56.668 62.9687 56.6749C62.6554 56.7395 62.4171 57.0153 62.4171 57.349V58.8574V61.8504V61.9798C62.4171 61.9935 62.4205 62.0071 62.4205 62.0207V62.5485C62.4205 63.1205 61.9574 63.587 61.382 63.587H59.9825C59.4105 63.587 58.944 63.1239 58.944 62.5485V62.0684C58.9474 62.0411 58.9508 62.0173 58.9508 61.9866V61.8572V58.8643V57.3456C58.9508 56.9643 58.6409 56.6578 58.263 56.6578H58.2562H56.1723H56.1655C55.7841 56.6578 55.4777 56.9677 55.4777 57.3456V58.8643V61.8572V61.9866C55.4777 62.0139 55.4811 62.0411 55.4845 62.0684V62.5485C55.4845 63.1205 55.0214 63.587 54.446 63.587H53.0465C52.4745 63.587 52.008 63.1239 52.008 62.5485V62.0684C52.0114 62.0411 52.0148 62.0173 52.0148 61.99V61.8607V58.8677V57.349C52.0148 56.9677 51.705 56.6612 51.327 56.6612H51.3202H49.2363H49.2295C48.8482 56.6612 48.5417 56.9711 48.5417 57.349V58.8677V61.8607V61.99C48.5417 62.0173 48.5451 62.0445 48.5485 62.0684V62.5485C48.5485 63.1205 48.0854 63.587 47.51 63.587H46.1105C45.5385 63.587 45.072 63.1239 45.072 62.5485V62.1671C45.072 62.1501 45.0754 62.1365 45.0754 62.1194C45.0822 62.0786 45.089 62.0343 45.089 61.9866V61.8572V58.8643V57.3456C45.089 56.9643 44.7792 56.6578 44.4012 56.6578H44.3842H42.3106H42.2935C41.9122 56.6578 41.6057 56.9677 41.6057 57.3456V58.8643V61.8572V61.9866C41.6057 62.0309 41.6091 62.0752 41.6194 62.1194C41.6194 62.1365 41.6228 62.1501 41.6228 62.1671V62.5485C41.6228 63.1205 41.1597 63.587 40.5842 63.587H34.6834L34.68 63.5836V57.3456C34.68 56.9643 34.3701 56.6578 33.9922 56.6578H31.8811C31.4997 56.6578 31.1933 56.9677 31.1933 57.3456L31.2103 67.816C31.2103 68.388 30.7472 68.8545 30.1718 68.8545L30.1513 68.8579V68.8511L24.9621 68.8477C24.3458 68.8477 24.036 69.5934 24.4718 70.0326L26.6476 72.2084C26.7157 72.2765 26.811 72.3174 26.9098 72.3174L29.4635 72.314C29.4737 72.3174 29.4806 72.3208 29.484 72.3208C32.3544 72.3208 34.6834 69.9918 34.6834 67.1214V65.3303L36.2769 66.9239C36.3586 67.0056 36.4676 67.0499 36.5834 67.0499H39.893C41.221 67.0499 42.4297 66.5459 43.3491 65.7253C44.2038 66.4915 45.3138 66.975 46.5362 67.0362C46.5702 67.0431 46.6009 67.0499 46.6383 67.0499H46.7303H46.8052H46.8222C48.1535 67.0499 49.3623 66.5459 50.2817 65.7219C51.1363 66.4915 52.2498 66.975 53.4756 67.0362C53.5096 67.0431 53.5402 67.0499 53.5777 67.0499H53.6696H53.7445H53.7616C55.0929 67.0499 56.3017 66.5459 57.221 65.7219C58.0757 66.4915 59.1891 66.975 60.4149 67.0362C60.449 67.0431 60.4796 67.0499 60.5171 67.0499H60.609H60.6839H60.701C62.0357 67.0499 63.2479 66.5425 64.1672 65.7151C65.0866 66.5391 66.2954 67.0431 67.6233 67.0431H69.4586C69.4858 67.0465 69.5131 67.0499 69.5437 67.0499H81.56H81.9583H83.654C84.0354 67.0499 84.3418 66.74 84.3418 66.3621V58.3773C84.3418 58.3161 84.3316 58.2616 84.318 58.2037C84.2124 55.4252 81.9277 53.1915 79.1186 53.1915Z" fill="#132F57"/>
<path d="M136.421 53.1914H134.409H130.129C129.747 53.1914 129.441 53.5012 129.441 53.8792V55.9699C129.441 56.3512 129.751 56.6577 130.129 56.6577H134.409H137.112C137.684 56.6577 138.151 57.1208 138.151 57.6962V62.5585C138.151 63.1306 137.688 63.5971 137.112 63.5971L137.109 63.6005H134.439C134.433 63.6005 134.426 63.5971 134.419 63.5971H130.139C129.758 63.5971 129.451 63.9069 129.451 64.2849V66.3755C129.451 66.7569 129.761 67.0634 130.139 67.0634H132.652H136.418C139.288 67.0634 141.617 64.7343 141.617 61.8639V58.3874C141.621 55.517 139.292 53.1914 136.421 53.1914Z" fill="#132F57"/>
<path d="M113.758 68.8066H111.667C111.286 68.8066 110.979 69.1165 110.979 69.4944V71.6055C110.979 71.9869 111.289 72.2934 111.667 72.2934H113.758C114.139 72.2934 114.446 71.9835 114.446 71.6055V69.4944C114.446 69.1165 114.136 68.8066 113.758 68.8066Z" fill="#132F57"/>
<path d="M125.862 68.7969H123.772C123.755 68.7969 123.738 68.8003 123.721 68.8003C123.704 68.8003 123.687 68.7969 123.67 68.7969H120.302C119.921 68.7969 119.614 69.1067 119.614 69.4847V71.5958C119.614 71.9772 119.924 72.2836 120.302 72.2836H123.67C123.687 72.2836 123.704 72.2802 123.721 72.2802C123.738 72.2802 123.755 72.2836 123.772 72.2836H125.862C126.244 72.2836 126.55 71.9737 126.55 71.5958V69.4847C126.55 69.1067 126.24 68.7969 125.862 68.7969Z" fill="#132F57"/>
<path d="M112.658 53.1914H110.775C110.771 53.1914 110.768 53.1914 110.764 53.1914H108.391C108.292 53.1914 108.197 53.2288 108.129 53.3003L105.953 55.4761C105.517 55.912 105.827 56.6611 106.444 56.6611L112.361 56.6577H113.345C113.917 56.6577 114.384 57.1208 114.384 57.6962V62.5585L114.401 62.5551V63.5868H103.001C102.62 63.5868 102.313 63.8967 102.313 64.2747V66.3653C102.313 66.7467 102.623 67.0531 103.001 67.0531H105.773V67.7886C105.773 68.3607 105.31 68.8271 104.734 68.8271H97.5292C96.9572 68.8271 96.4907 68.3641 96.4907 67.7886L96.4873 67.7852V65.1157C96.4873 65.1089 96.4907 65.1021 96.4907 65.0953V60.8288C96.4907 60.4474 96.1809 60.141 95.8029 60.141H93.7122C93.3309 60.141 93.0244 60.4509 93.0244 60.8288V63.3281V67.094C93.0244 69.9644 95.3534 72.2934 98.2238 72.2934H104.046C106.917 72.2934 109.246 69.9644 109.246 67.094V67.0497H115.096H115.494H117.19C117.571 67.0497 117.877 66.7399 117.877 66.3619V58.3772C117.877 58.3159 117.867 58.2614 117.854 58.2035C117.751 55.4251 115.467 53.1914 112.658 53.1914Z" fill="#132F57"/>
<path d="M127.599 56.6562H125.508C125.127 56.6562 124.82 56.9661 124.82 57.344V57.8139V62.5469C124.82 63.1189 124.357 63.5854 123.782 63.5854H117.881L117.874 63.5752V65.3254L119.471 66.9223C119.553 67.004 119.662 67.0483 119.777 67.0483H123.087C125.869 67.0483 128.133 64.8589 128.273 62.111C128.28 62.0702 128.287 62.0259 128.287 61.9783V61.8489V58.8559V57.3372C128.287 56.9661 127.977 56.6562 127.599 56.6562Z" fill="#132F57"/>
<path d="M42.6613 68.7969H40.5706C40.5536 68.7969 40.5365 68.8003 40.5195 68.8003C40.5025 68.8003 40.4855 68.7969 40.4684 68.7969H37.1009C36.7195 68.7969 36.4131 69.1067 36.4131 69.4847V71.5958C36.4131 71.9772 36.7229 72.2836 37.1009 72.2836H39.8794V73.3119C39.8794 73.6933 40.1892 73.9997 40.5672 73.9997H42.6579C43.0392 73.9997 43.3457 73.6899 43.3457 73.3119V71.5924V71.2008V69.4813C43.3491 69.1067 43.0426 68.7969 42.6613 68.7969Z" fill="#132F57"/>
</svg>
